<?xml version="1.0" encoding="UTF-8"?>
<!DOCTYPE svg PUBLIC "-//W3C//DTD SVG 1.1//EN" "http://www.w3.org/Graphics/SVG/1.1/DTD/svg11.dtd">
<!-- Creator: CorelDRAW 2017 -->
<svg xmlns="http://www.w3.org/2000/svg" xml:space="preserve" width="49.9532mm" height="41.0632mm" version="1.1" style="shape-rendering:geometricPrecision; text-rendering:geometricPrecision; image-rendering:optimizeQuality; fill-rule:evenodd; clip-rule:evenodd"
viewBox="0 0 4995.32 4106.32"
 xmlns:xlink="http://www.w3.org/1999/xlink">
 <defs>
  <style type="text/css">
   <![CDATA[
    .fil0 {fill:#023C2A;fill-rule:nonzero}
   ]]>
  </style>
 </defs>
 <g id="Слой_x0020_1">
  <metadata id="CorelCorpID_0Corel-Layer"/>
  <g id="_2747916414080">
   <g>
    <path class="fil0" d="M2369.74 797.73c0,0 -226.1,199.28 -605.28,85.18 -234.68,-70.58 -89.24,-257.37 -61.39,-241.55 0,0 216.65,293.85 666.67,156.37z"/>
    <path class="fil0" d="M1979.72 918.16c0,0 -489.22,-10.41 -624.45,233.02 0,0 -104.03,-245.78 132.54,-364.06 217.8,-108.9 491.91,131.04 491.91,131.04z"/>
    <path class="fil0" d="M2387.99 508.03c-18.2,15.7 -42.84,23.57 -68.3,18.91 -16.08,-2.91 -30.01,-10.47 -41.12,-20.83 -0.57,1.46 -1.37,2.41 -2,3.98 -44.18,115.88 191.79,176.57 191.79,176.57 -3.24,-63.9 -39.4,-135.97 -80.37,-178.63z"/>
    <path class="fil0" d="M2261.41 668.26c-1.75,23.97 -13.63,46.95 -34.91,61.63 -13.42,9.3 -28.61,13.82 -43.75,14.31 0.6,1.48 0.66,2.75 1.37,4.26 50.7,113.19 260.46,-10.73 260.46,-10.73 -47.44,-42.92 -123.97,-68.33 -183.17,-69.47z"/>
    <path class="fil0" d="M2285.21 871.04c15.77,18.13 23.64,42.83 18.94,68.29 -2.92,16.05 -10.47,29.96 -20.83,41.03 1.46,0.63 2.38,1.44 3.98,2.06 115.85,44.16 176.54,-191.79 176.54,-191.79 -63.86,3.24 -135.91,39.38 -178.63,80.41z"/>
    <path class="fil0" d="M2445.47 997.59c23.98,1.69 46.96,13.56 61.66,34.87 9.3,13.43 13.76,28.62 14.31,43.81 1.46,-0.62 2.71,-0.68 4.26,-1.4 113.11,-50.7 -10.76,-260.48 -10.76,-260.48 -42.89,47.49 -68.27,124 -69.47,183.2z"/>
    <path class="fil0" d="M2648.22 973.75c18.19,-15.73 42.83,-23.63 68.33,-18.91 16.02,2.89 29.96,10.48 41.08,20.8 0.52,-1.43 1.43,-2.37 2.03,-3.92 44.12,-115.88 -191.78,-176.62 -191.78,-176.62 3.26,63.89 39.33,135.97 80.34,178.65z"/>
    <path class="fil0" d="M2774.83 813.55c1.72,-23.97 13.56,-47.03 34.91,-61.66 13.36,-9.32 28.58,-13.85 43.71,-14.36 -0.6,-1.43 -0.65,-2.69 -1.33,-4.27 -50.74,-113.07 -260.47,10.77 -260.47,10.77 47.47,42.89 123.96,68.3 183.18,69.52z"/>
    <path class="fil0" d="M2751.05 610.74c-15.79,-18.19 -23.66,-42.85 -19,-68.29 2.95,-16.02 10.53,-29.99 20.83,-41.09 -1.4,-0.54 -2.31,-1.4 -3.97,-2.06 -115.91,-44.06 -176.57,191.85 -176.57,191.85 63.89,-3.29 135.91,-39.34 178.71,-80.41z"/>
    <path class="fil0" d="M2590.82 484.16c-24.03,-1.71 -47.1,-13.56 -61.71,-34.87 -9.34,-13.39 -13.8,-28.64 -14.36,-43.78 -1.35,0.63 -2.64,0.66 -4.27,1.34 -113.05,50.77 10.79,260.49 10.79,260.49 42.86,-47.5 68.26,-123.92 69.55,-183.18z"/>
    <path class="fil0" d="M2666.5 807.83c0,0 226.07,199.26 605.28,85.15 234.7,-70.59 89.24,-257.34 61.37,-241.52 0,0 -216.63,293.86 -666.65,156.37z"/>
    <path class="fil0" d="M3056.49 928.26c0,0 489.28,-10.45 624.47,232.99 0,0 104.03,-245.78 -132.53,-364.03 -217.77,-108.91 -491.94,131.04 -491.94,131.04z"/>
    <path class="fil0" d="M3002.1 356.98c-0.17,0.09 -0.29,0.18 -0.4,0.26 -0.06,0.03 -0.11,0.09 -0.2,0.11 -0.15,0.12 -0.29,0.26 -0.46,0.41 -121.11,90.38 -11.7,198.25 -11.7,198.25 70.53,-85.12 131.96,-23.69 131.96,-23.69 54.07,70.07 -10.88,129.36 -28.82,149.53 -53.59,-41.37 -86.15,-3.03 -86.15,-3.03 31.88,74.93 -113.56,104.75 -176.65,117.28 0,0 341.12,10.78 461.78,-203.64 105.43,-187.26 -158.55,-339.22 -289.36,-235.48z"/>
    <path class="fil0" d="M2032.31 346.88c0.08,0.09 0.25,0.2 0.37,0.26 0.12,0.06 0.14,0.08 0.2,0.11 0.11,0.12 0.26,0.29 0.43,0.43 121.15,90.36 11.68,198.26 11.68,198.26 -70.42,-85.15 -131.92,-23.69 -131.92,-23.69 -54.13,70.04 10.88,129.32 28.79,149.5 53.59,-41.38 86.16,-3.03 86.16,-3.03 -31.91,74.93 113.53,104.75 176.65,117.34 0,0 -341.04,10.73 -461.75,-203.67 -105.44,-187.3 158.54,-339.23 289.39,-235.51z"/>
    <path class="fil0" d="M2548.62 741.91c0,14.87 -12.05,26.92 -26.92,26.92 -14.94,0 -27.01,-12.05 -27.01,-26.92 0,-14.91 12.07,-26.96 27.01,-26.96 14.87,0 26.92,12.05 26.92,26.96z"/>
    <path class="fil0" d="M2872.37 405.51c-42.29,-97.34 -183.49,-42.55 -183.49,-42.55 8.47,-240.69 -167.18,-364.29 -167.18,-364.29 0,0 -175.69,123.6 -167.24,364.29 0,0 -141.21,-54.79 -183.47,42.55 -42.32,97.31 32.5,190.13 42.26,190.87 0,0 -58.54,-85.44 0,-152.1 58.54,-66.67 201.66,13.02 201.66,13.02 0,0 -14.14,-108.96 106.79,-188.65 120.91,79.69 106.72,188.65 106.72,188.65 0,0 143.12,-79.69 201.66,-13.02 58.57,66.66 0,152.1 0,152.1 9.79,-0.74 84.58,-93.56 42.29,-190.87z"/>
    <path class="fil0" d="M3629.28 3866.48c0,0 249.48,-169.02 611.2,-7.75 223.83,99.79 55.85,266.6 30.21,247.38 0,0 -177.62,-318.94 -641.41,-239.63z"/>
    <path class="fil0" d="M4031.38 3796.44c0,0 483.97,72.38 648.98,-151.91 0,0 71.99,256.94 -177.59,344.29 -229.85,80.4 -471.39,-192.38 -471.39,-192.38z"/>
    <path class="fil0" d="M2213.25 583.88c0,0 -123.01,-80.09 -84.17,-233.93 38.77,-153.89 154.24,-127.1 154.24,-127.1 0,0 0.95,-50.85 -55.24,-62.89 0,0 152.52,-96.34 189.98,40.14 37.49,136.46 -32.1,203.35 -32.1,203.35 0,0 -139.08,-73.56 -181.29,1.34 -42.12,74.91 -6.24,168.22 8.58,179.09z"/>
    <path class="fil0" d="M2834.57 583.88c0,0 122.98,-80.09 84.21,-233.93 -38.83,-153.89 -154.28,-127.1 -154.28,-127.1 0,0 -0.94,-50.85 55.25,-62.89 0,0 -152.53,-96.34 -189.99,40.14 -37.45,136.46 32.1,203.35 32.1,203.35 0,0 139.12,-73.56 181.27,1.34 42.2,74.91 6.26,168.22 -8.56,179.09z"/>
    <path class="fil0" d="M2509.42 1212.95c-729.96,0 -1323.81,593.85 -1323.81,1323.76 0,729.97 593.85,1323.82 1323.81,1323.82 729.94,0 1323.76,-593.85 1323.76,-1323.82 0,-729.91 -593.82,-1323.76 -1323.76,-1323.76zm0 2776.02c-800.78,0 -1452.23,-651.48 -1452.23,-1452.26 0,-800.72 651.45,-1452.2 1452.23,-1452.2 800.72,0 1452.2,651.48 1452.2,1452.2 0,800.78 -651.48,1452.26 -1452.2,1452.26z"/>
    <path class="fil0" d="M2230.45 1051.44c0,0 -968.68,62.46 -1204.16,1132.77 0,0 -172.24,-378.18 223.78,-784.9 0,0 -192.65,-1.8 -178.37,-155.2 0,0 189.07,57.08 399.57,-64.23 210.51,-121.29 412.68,-190.7 759.18,-128.44z"/>
    <path class="fil0" d="M2787.9 1051.44c0,0 995.18,89.21 1230.63,1159.55 0,0 145.84,-404.96 -250.19,-811.68 0,0 192.6,-1.8 178.37,-155.2 0,0 -189.07,57.08 -399.57,-64.23 -210.5,-121.29 -412.68,-190.7 -759.24,-128.44z"/>
    <path class="fil0" d="M3233.31 3955.92c0,0 828.05,-655.6 1762.88,-83.61 0,0 -190.91,-385.75 -758.54,-382.11 0,0 132.16,-140.12 11.72,-236.14 0,0 -89.87,175.85 -323.2,243.54 -233.34,67.7 -509.85,241.72 -692.86,458.32z"/>
    <path class="fil0" d="M1366.06 3866.48c0,0 -249.5,-169.02 -611.18,-7.75 -223.87,99.79 -55.89,266.6 -30.22,247.38 0,0 177.63,-318.94 641.4,-239.63z"/>
    <path class="fil0" d="M963.94 3796.44c0,0 -483.97,72.38 -648.96,-151.91 0,0 -72.01,256.94 177.6,344.29 229.85,80.4 471.36,-192.38 471.36,-192.38z"/>
    <path class="fil0" d="M1762.03 3955.92c0,0 -828.07,-655.6 -1762.9,-83.61 0,0 190.91,-385.75 758.54,-382.11 0,0 -132.16,-140.12 -11.72,-236.14 0,0 89.9,175.85 323.23,243.54 233.31,67.7 509.82,241.72 692.85,458.32z"/>
    <path class="fil0" d="M1609.64 1148.75c0,0 -128.5,-0.23 -86.98,-120.58 0,0 77.57,18.8 287.64,-36.05 210.05,-54.82 389.48,-1.77 420.15,59.32l-620.81 97.31z"/>
    <path class="fil0" d="M3408.77 1148.75c0,0 128.44,-0.23 86.98,-120.58 0,0 -77.59,18.8 -287.64,-36.05 -210.08,-54.82 -389.48,-1.77 -420.21,59.32l620.87 97.31z"/>
    <path class="fil0" d="M4232.58 2759.49c-7.61,-259.86 -187.81,-457.09 -187.81,-457.09 124.97,709.39 -185.9,1059.06 -185.9,1059.06 0,0 270.39,-83.06 374.06,-299.33 103.66,-216.26 197.16,-189.74 197.16,-189.74 0,0 -58.48,-185.86 -197.51,-112.9z"/>
    <path class="fil0" d="M792.47 2759.49c7.66,-259.86 187.81,-457.09 187.81,-457.09 -124.94,709.39 185.93,1059.06 185.93,1059.06 0,0 -270.39,-83.06 -374.06,-299.33 -103.68,-216.26 -197.17,-189.74 -197.17,-189.74 0,0 58.52,-185.86 197.49,-112.9z"/>
   </g>
   <path class="fil0" d="M2198.18 3080.2l-5.27 1.75c8.18,1.16 51.9,6.4 131.22,15.75 69.98,6.98 116.06,10.5 138.23,10.5 206.44,-17.49 393.64,-83.98 561.6,-199.45 167.95,-115.47 264.18,-301.5 288.69,-558.12 0,-5.82 0.28,-11.67 0.86,-17.5 0.58,-5.82 0.89,-11.09 0.89,-15.74 0,-158.62 -62.99,-285.18 -188.97,-379.66 -131.8,-99.15 -301.51,-148.72 -509.11,-148.72 -90.99,0 -174.97,9.93 -251.93,29.75 -75.83,19.82 -140.57,44.33 -194.22,73.5 111.98,-47.83 239.69,-71.75 383.16,-71.75 206.44,2.32 376.17,53.09 509.13,152.2 123.63,93.32 185.45,217.56 185.45,372.68 0,5.82 -0.3,12.25 -0.88,19.24 -0.58,6.99 -0.86,13.42 -0.86,19.24 -10.51,114.31 -36.76,214.62 -78.74,300.92 -42,85.15 -95.07,157.48 -159.22,216.95 114.31,-124.79 180.79,-282.85 199.45,-474.12 0,-5.85 0.3,-11.67 0.89,-17.5 0.58,-5.84 0.86,-11.08 0.86,-15.74 0,-158.64 -62.97,-285.18 -188.95,-379.66 -131.8,-99.15 -301.5,-148.72 -509.13,-148.72 -92.13,0 -174.95,8.76 -248.42,26.26 -71.16,16.33 -134.74,40.22 -190.71,71.72 -59.47,53.65 -92.72,111.4 -99.73,173.2 0,43.16 15.75,75.24 47.24,96.23 -15.16,11.67 -34.4,17.49 -57.75,17.49 -32.63,0 -57.72,-11.67 -75.21,-34.99 -17.5,-23.31 -26.26,-49.57 -26.26,-78.73 0,-85.15 70,-176.11 209.96,-272.93 139.95,-94.48 324.24,-141.72 552.86,-141.72 226.28,2.35 423.41,58.33 591.36,167.98 167.96,109.62 251.94,265.33 251.94,467.13 0,128.28 -34.99,254.85 -104.99,379.64 -69.98,123.65 -171.45,225.7 -304.42,306.19 -81.65,65.32 -178.44,118.38 -290.42,159.19 -111.98,39.68 -237.93,60.66 -377.91,62.99l-5.24 0 -5.27 0 0 1.75c-61.8,0 -119.55,-3.49 -173.2,-10.48 -26.83,-3.52 -54.53,-7.02 -83.09,-10.51 -28.58,-3.49 -57.44,-7.01 -86.61,-10.51 -22.15,-2.32 -44.61,-4.96 -67.37,-7.87 -22.73,-2.91 -45.77,-6.13 -69.09,-9.62 -17.5,-1.16 -34.99,-2.61 -52.48,-4.38 -17.5,-1.75 -34.41,-2.61 -50.74,-2.61 -5.85,0 -11.98,0.28 -18.38,0.86 -6.41,0.59 -12.53,0.89 -18.38,0.89 -12.81,0 -25.07,1.75 -36.74,5.24 -5.82,1.16 -11.95,2.33 -18.35,3.49 -6.43,1.17 -12.56,2.36 -18.38,3.52 -9.34,0 -14,-4.1 -14,-12.25 0,-2.33 0.3,-4.08 0.88,-5.24 0.59,-1.17 0.86,-2.94 0.86,-5.27 3.5,-32.66 10.51,-50.15 20.99,-52.48l15.75 -5.24c3.52,-1.17 7.59,-2.91 12.25,-5.27 0,-1.16 -1.16,4.1 -3.49,15.75 0,2.35 -0.3,4.38 -0.89,6.13 -0.58,1.74 -0.86,3.79 -0.86,6.12 0,8.18 5.24,12.26 15.75,12.26l36.74 -5.24 36.73 -5.27c5.85,0 11.95,-0.28 18.38,-0.86 6.41,-0.58 12.53,-0.89 18.36,-0.89 17.49,0 34.71,0.59 51.62,1.75 16.91,1.17 34.13,2.91 51.62,5.27 23.32,3.49 46.36,6.68 69.09,9.62 22.76,2.91 45.19,5.52 67.37,7.87 30.33,3.49 59.47,6.99 87.47,10.48 28.01,3.5 55.4,7.02 82.24,10.51 54.81,6.99 112.56,10.51 173.19,10.51l5.27 0 5.24 0c198.29,-3.52 373.23,-47.25 524.86,-131.22 -137.63,64.15 -291.59,97.37 -461.87,99.72l-3.49 0 -1.78 0c-37.31,0 -69.39,-0.89 -96.2,-2.63 -26.84,-1.75 -52.51,-4.38 -76.99,-7.88 -26.84,-4.65 -54.54,-8.76 -83.1,-12.25 -28.58,-3.49 -57.44,-6.99 -86.61,-10.48 -22.15,-2.33 -44.61,-4.96 -67.37,-7.87 -22.73,-2.94 -45.77,-6.13 -69.09,-9.63 -17.49,-1.16 -34.99,-2.63 -52.51,-4.38 -17.49,-1.74 -34.4,-2.63 -50.73,-2.63 -5.83,0 -11.95,0.31 -18.36,0.89 -6.43,0.58 -12.53,0.86 -18.38,0.86 -12.83,0 -25.06,1.75 -36.73,5.26 -5.83,1.17 -11.95,2.33 -18.38,3.5 -6.41,1.16 -12.54,2.33 -18.36,3.49 -9.34,0 -14,-3.49 -14,-10.5 0,-1.17 0.3,-2.92 0.89,-5.24 0.58,-2.33 0.86,-4.66 0.86,-6.99 2.33,-31.5 9.34,-48.99 20.99,-52.51 114.3,-38.48 207.04,-112.54 278.18,-222.19 36.16,-54.81 70.56,-108.46 103.22,-160.94 32.66,-52.51 64.16,-103.83 94.49,-153.98 51.32,-87.47 96.81,-188.95 136.46,-304.42 39.65,-114.31 97.4,-195.37 173.22,-243.2 22.15,-11.64 55.4,-20.4 99.7,-26.23 3.52,0 7.01,-0.3 10.51,-0.88 3.49,-0.59 7.01,-0.86 10.5,-0.86 30.34,0 45.48,11.64 45.48,34.98 -73.48,57.15 -137.05,144.04 -190.7,260.67 -26.83,57.17 -55.11,115.48 -84.86,174.97 -29.72,59.5 -61.52,120.13 -95.35,181.96 -19.82,36.15 -40.53,72.61 -62.1,109.35 -21.57,36.73 -44.03,74.35 -67.37,112.84 -46.63,78.15 -100.89,140.56 -162.69,187.19 -7.01,5.85 -14,14.59 -21.01,26.26 0,2.33 -0.59,4.38 -1.75,6.12 -1.16,1.75 -1.75,2.64 -1.75,2.64 0,8.15 7.02,12.23 20.99,12.23 8.18,1.16 16.33,2.05 24.51,2.63 8.15,0.58 16.91,1.47 26.25,2.63l52.49 5.24zm260.66 -997.25l3.52 -3.5c-50.15,60.64 -92.15,138.79 -125.98,234.44 -32.66,93.32 -71.14,176.11 -115.47,248.44 -20.99,36.16 -42.58,72.89 -64.74,110.21 -22.15,37.34 -44.91,75.83 -68.23,115.47 -47.82,80.49 -102.63,148.72 -164.46,204.72 50.16,-53.67 95.65,-116.06 136.46,-187.22 19.85,-34.99 39.37,-69.09 58.61,-102.34 19.27,-33.24 38.21,-65.04 56.87,-95.34 47.82,-80.49 90.4,-174.97 127.72,-283.43 36.16,-106.16 88.06,-186.64 155.7,-241.45zm-584.35 -83.98l-1.74 1.75c-50.16,54.81 -75.22,108.48 -75.22,160.96 0,26.82 8.15,51.9 24.48,75.22 16.33,23.34 39.06,36.76 68.23,40.26 7.01,12.81 15.75,21.57 26.25,26.23 -18.66,11.67 -37.92,17.49 -57.75,17.49 -33.82,0 -59.47,-12.23 -76.96,-36.74 -17.49,-24.48 -26.25,-51.31 -26.25,-80.48 0,-64.15 39.64,-132.38 118.96,-204.69z"/>
  </g>
 </g>
</svg>
